<svg width="398" height="60" viewBox="0 0 398 60" fill="none" xmlns="http://www.w3.org/2000/svg">
<path d="M200.856 17.592H193.872L192.672 21H189.816L195.792 4.296H198.96L204.936 21H202.056L200.856 17.592ZM200.088 15.36L197.376 7.608L194.64 15.36H200.088ZM206.622 14.328C206.622 13 206.894 11.824 207.438 10.8C207.998 9.776 208.75 8.984 209.694 8.424C210.654 7.848 211.718 7.56 212.886 7.56C213.75 7.56 214.598 7.752 215.43 8.136C216.278 8.504 216.95 9 217.446 9.624V3.24H220.206V21H217.446V19.008C216.998 19.648 216.374 20.176 215.574 20.592C214.79 21.008 213.886 21.216 212.862 21.216C211.71 21.216 210.654 20.928 209.694 20.352C208.75 19.76 207.998 18.944 207.438 17.904C206.894 16.848 206.622 15.656 206.622 14.328ZM217.446 14.376C217.446 13.464 217.254 12.672 216.87 12C216.502 11.328 216.014 10.816 215.406 10.464C214.798 10.112 214.142 9.936 213.438 9.936C212.734 9.936 212.078 10.112 211.47 10.464C210.862 10.8 210.366 11.304 209.982 11.976C209.614 12.632 209.43 13.416 209.43 14.328C209.43 15.24 209.614 16.04 209.982 16.728C210.366 17.416 210.862 17.944 211.47 18.312C212.094 18.664 212.75 18.84 213.438 18.84C214.142 18.84 214.798 18.664 215.406 18.312C216.014 17.96 216.502 17.448 216.87 16.776C217.254 16.088 217.446 15.288 217.446 14.376ZM228.912 18.552L232.656 7.776H235.56L230.52 21H227.256L222.24 7.776H225.168L228.912 18.552ZM236.716 14.328C236.716 13 236.988 11.824 237.532 10.8C238.092 9.776 238.844 8.984 239.788 8.424C240.748 7.848 241.804 7.56 242.956 7.56C243.996 7.56 244.9 7.768 245.668 8.184C246.452 8.584 247.076 9.088 247.54 9.696V7.776H250.3V21H247.54V19.032C247.076 19.656 246.444 20.176 245.644 20.592C244.844 21.008 243.932 21.216 242.908 21.216C241.772 21.216 240.732 20.928 239.788 20.352C238.844 19.76 238.092 18.944 237.532 17.904C236.988 16.848 236.716 15.656 236.716 14.328ZM247.54 14.376C247.54 13.464 247.348 12.672 246.964 12C246.596 11.328 246.108 10.816 245.5 10.464C244.892 10.112 244.236 9.936 243.532 9.936C242.828 9.936 242.172 10.112 241.564 10.464C240.956 10.8 240.46 11.304 240.076 11.976C239.708 12.632 239.524 13.416 239.524 14.328C239.524 15.24 239.708 16.04 240.076 16.728C240.46 17.416 240.956 17.944 241.564 18.312C242.188 18.664 242.844 18.84 243.532 18.84C244.236 18.84 244.892 18.664 245.5 18.312C246.108 17.96 246.596 17.448 246.964 16.776C247.348 16.088 247.54 15.288 247.54 14.376ZM260.566 7.56C261.606 7.56 262.534 7.776 263.35 8.208C264.182 8.64 264.83 9.28 265.294 10.128C265.758 10.976 265.99 12 265.99 13.2V21H263.278V13.608C263.278 12.424 262.982 11.52 262.39 10.896C261.798 10.256 260.99 9.936 259.966 9.936C258.942 9.936 258.126 10.256 257.518 10.896C256.926 11.52 256.63 12.424 256.63 13.608V21H253.894V7.776H256.63V9.288C257.078 8.744 257.646 8.32 258.334 8.016C259.038 7.712 259.782 7.56 260.566 7.56ZM268.568 14.376C268.568 13.016 268.84 11.824 269.384 10.8C269.944 9.76 270.712 8.96 271.688 8.4C272.664 7.84 273.784 7.56 275.048 7.56C276.648 7.56 277.968 7.944 279.008 8.712C280.064 9.464 280.776 10.544 281.144 11.952H278.192C277.952 11.296 277.568 10.784 277.04 10.416C276.512 10.048 275.848 9.864 275.048 9.864C273.928 9.864 273.032 10.264 272.36 11.064C271.704 11.848 271.376 12.952 271.376 14.376C271.376 15.8 271.704 16.912 272.36 17.712C273.032 18.512 273.928 18.912 275.048 18.912C276.632 18.912 277.68 18.216 278.192 16.824H281.144C280.76 18.168 280.04 19.24 278.984 20.04C277.928 20.824 276.616 21.216 275.048 21.216C273.784 21.216 272.664 20.936 271.688 20.376C270.712 19.8 269.944 19 269.384 17.976C268.84 16.936 268.568 15.736 268.568 14.376ZM295.99 14.064C295.99 14.56 295.958 15.008 295.894 15.408H285.79C285.87 16.464 286.262 17.312 286.966 17.952C287.67 18.592 288.534 18.912 289.558 18.912C291.03 18.912 292.07 18.296 292.678 17.064H295.63C295.23 18.28 294.502 19.28 293.446 20.064C292.406 20.832 291.11 21.216 289.558 21.216C288.294 21.216 287.158 20.936 286.15 20.376C285.158 19.8 284.374 19 283.798 17.976C283.238 16.936 282.958 15.736 282.958 14.376C282.958 13.016 283.23 11.824 283.774 10.8C284.334 9.76 285.11 8.96 286.102 8.4C287.11 7.84 288.262 7.56 289.558 7.56C290.806 7.56 291.918 7.832 292.894 8.376C293.87 8.92 294.63 9.688 295.174 10.68C295.718 11.656 295.99 12.784 295.99 14.064ZM293.134 13.2C293.118 12.192 292.758 11.384 292.054 10.776C291.35 10.168 290.478 9.864 289.438 9.864C288.494 9.864 287.686 10.168 287.014 10.776C286.342 11.368 285.942 12.176 285.814 13.2H293.134ZM297.771 14.328C297.771 13 298.043 11.824 298.587 10.8C299.147 9.776 299.899 8.984 300.843 8.424C301.803 7.848 302.867 7.56 304.035 7.56C304.899 7.56 305.747 7.752 306.579 8.136C307.427 8.504 308.099 9 308.595 9.624V3.24H311.355V21H308.595V19.008C308.147 19.648 307.523 20.176 306.723 20.592C305.939 21.008 305.035 21.216 304.011 21.216C302.859 21.216 301.803 20.928 300.843 20.352C299.899 19.76 299.147 18.944 298.587 17.904C298.043 16.848 297.771 15.656 297.771 14.328ZM308.595 14.376C308.595 13.464 308.403 12.672 308.019 12C307.651 11.328 307.163 10.816 306.555 10.464C305.947 10.112 305.291 9.936 304.587 9.936C303.883 9.936 303.227 10.112 302.619 10.464C302.011 10.8 301.515 11.304 301.131 11.976C300.763 12.632 300.579 13.416 300.579 14.328C300.579 15.24 300.763 16.04 301.131 16.728C301.515 17.416 302.011 17.944 302.619 18.312C303.243 18.664 303.899 18.84 304.587 18.84C305.291 18.84 305.947 18.664 306.555 18.312C307.163 17.96 307.651 17.448 308.019 16.776C308.403 16.088 308.595 15.288 308.595 14.376ZM331.959 4.32V6.552H327.519V21H324.783V6.552H320.319V4.32H331.959ZM333.818 14.328C333.818 13 334.09 11.824 334.634 10.8C335.194 9.776 335.946 8.984 336.89 8.424C337.85 7.848 338.906 7.56 340.058 7.56C341.098 7.56 342.002 7.768 342.77 8.184C343.554 8.584 344.178 9.088 344.642 9.696V7.776H347.402V21H344.642V19.032C344.178 19.656 343.546 20.176 342.746 20.592C341.946 21.008 341.034 21.216 340.01 21.216C338.874 21.216 337.834 20.928 336.89 20.352C335.946 19.76 335.194 18.944 334.634 17.904C334.09 16.848 333.818 15.656 333.818 14.328ZM344.642 14.376C344.642 13.464 344.45 12.672 344.066 12C343.698 11.328 343.21 10.816 342.602 10.464C341.994 10.112 341.338 9.936 340.634 9.936C339.93 9.936 339.274 10.112 338.666 10.464C338.058 10.8 337.562 11.304 337.178 11.976C336.81 12.632 336.626 13.416 336.626 14.328C336.626 15.24 336.81 16.04 337.178 16.728C337.562 17.416 338.058 17.944 338.666 18.312C339.29 18.664 339.946 18.84 340.634 18.84C341.338 18.84 341.994 18.664 342.602 18.312C343.21 17.96 343.698 17.448 344.066 16.776C344.45 16.088 344.642 15.288 344.642 14.376ZM353.731 9.744C354.195 9.104 354.827 8.584 355.627 8.184C356.443 7.768 357.347 7.56 358.339 7.56C359.507 7.56 360.563 7.84 361.507 8.4C362.451 8.96 363.195 9.76 363.739 10.8C364.283 11.824 364.555 13 364.555 14.328C364.555 15.656 364.283 16.848 363.739 17.904C363.195 18.944 362.443 19.76 361.483 20.352C360.539 20.928 359.491 21.216 358.339 21.216C357.315 21.216 356.403 21.016 355.603 20.616C354.819 20.216 354.195 19.704 353.731 19.08V21H350.995V3.24H353.731V9.744ZM361.771 14.328C361.771 13.416 361.579 12.632 361.195 11.976C360.827 11.304 360.331 10.8 359.707 10.464C359.099 10.112 358.443 9.936 357.739 9.936C357.051 9.936 356.395 10.112 355.771 10.464C355.163 10.816 354.667 11.328 354.283 12C353.915 12.672 353.731 13.464 353.731 14.376C353.731 15.288 353.915 16.088 354.283 16.776C354.667 17.448 355.163 17.96 355.771 18.312C356.395 18.664 357.051 18.84 357.739 18.84C358.443 18.84 359.099 18.664 359.707 18.312C360.331 17.944 360.827 17.416 361.195 16.728C361.579 16.04 361.771 15.24 361.771 14.328ZM369.997 3.24V21H367.261V3.24H369.997ZM385.709 14.064C385.709 14.56 385.677 15.008 385.613 15.408H375.509C375.589 16.464 375.981 17.312 376.685 17.952C377.389 18.592 378.253 18.912 379.277 18.912C380.749 18.912 381.789 18.296 382.397 17.064H385.349C384.949 18.28 384.221 19.28 383.165 20.064C382.125 20.832 380.829 21.216 379.277 21.216C378.013 21.216 376.877 20.936 375.869 20.376C374.877 19.8 374.093 19 373.517 17.976C372.957 16.936 372.677 15.736 372.677 14.376C372.677 13.016 372.949 11.824 373.493 10.8C374.053 9.76 374.829 8.96 375.821 8.4C376.829 7.84 377.981 7.56 379.277 7.56C380.525 7.56 381.637 7.832 382.613 8.376C383.589 8.92 384.349 9.688 384.893 10.68C385.437 11.656 385.709 12.784 385.709 14.064ZM382.853 13.2C382.837 12.192 382.477 11.384 381.773 10.776C381.069 10.168 380.197 9.864 379.157 9.864C378.213 9.864 377.405 10.168 376.733 10.776C376.061 11.368 375.661 12.176 375.533 13.2H382.853ZM199.728 44.432C200.624 44.592 201.384 45.064 202.008 45.848C202.632 46.632 202.944 47.52 202.944 48.512C202.944 49.36 202.72 50.128 202.272 50.816C201.84 51.488 201.208 52.024 200.376 52.424C199.544 52.808 198.576 53 197.472 53H190.8V36.32H197.16C198.296 36.32 199.272 36.512 200.088 36.896C200.904 37.28 201.52 37.8 201.936 38.456C202.352 39.096 202.56 39.816 202.56 40.616C202.56 41.576 202.304 42.376 201.792 43.016C201.28 43.656 200.592 44.128 199.728 44.432ZM193.536 43.328H196.92C197.816 43.328 198.512 43.128 199.008 42.728C199.52 42.312 199.776 41.72 199.776 40.952C199.776 40.2 199.52 39.616 199.008 39.2C198.512 38.768 197.816 38.552 196.92 38.552H193.536V43.328ZM197.232 50.768C198.16 50.768 198.888 50.544 199.416 50.096C199.944 49.648 200.208 49.024 200.208 48.224C200.208 47.408 199.928 46.76 199.368 46.28C198.808 45.8 198.064 45.56 197.136 45.56H193.536V50.768H197.232ZM211.653 53.216C210.405 53.216 209.277 52.936 208.269 52.376C207.261 51.8 206.469 51 205.893 49.976C205.317 48.936 205.029 47.736 205.029 46.376C205.029 45.032 205.325 43.84 205.917 42.8C206.509 41.76 207.317 40.96 208.341 40.4C209.365 39.84 210.509 39.56 211.773 39.56C213.037 39.56 214.181 39.84 215.205 40.4C216.229 40.96 217.037 41.76 217.629 42.8C218.221 43.84 218.517 45.032 218.517 46.376C218.517 47.72 218.213 48.912 217.605 49.952C216.997 50.992 216.165 51.8 215.109 52.376C214.069 52.936 212.917 53.216 211.653 53.216ZM211.653 50.84C212.357 50.84 213.013 50.672 213.621 50.336C214.245 50 214.749 49.496 215.133 48.824C215.517 48.152 215.709 47.336 215.709 46.376C215.709 45.416 215.525 44.608 215.157 43.952C214.789 43.28 214.301 42.776 213.693 42.44C213.085 42.104 212.429 41.936 211.725 41.936C211.021 41.936 210.365 42.104 209.757 42.44C209.165 42.776 208.693 43.28 208.341 43.952C207.989 44.608 207.813 45.416 207.813 46.376C207.813 47.8 208.173 48.904 208.893 49.688C209.629 50.456 210.549 50.84 211.653 50.84ZM226.958 53.216C225.71 53.216 224.582 52.936 223.574 52.376C222.566 51.8 221.774 51 221.198 49.976C220.622 48.936 220.334 47.736 220.334 46.376C220.334 45.032 220.63 43.84 221.222 42.8C221.814 41.76 222.622 40.96 223.646 40.4C224.67 39.84 225.814 39.56 227.078 39.56C228.342 39.56 229.486 39.84 230.51 40.4C231.534 40.96 232.342 41.76 232.934 42.8C233.526 43.84 233.822 45.032 233.822 46.376C233.822 47.72 233.518 48.912 232.91 49.952C232.302 50.992 231.47 51.8 230.414 52.376C229.374 52.936 228.222 53.216 226.958 53.216ZM226.958 50.84C227.662 50.84 228.318 50.672 228.926 50.336C229.55 50 230.054 49.496 230.438 48.824C230.822 48.152 231.014 47.336 231.014 46.376C231.014 45.416 230.83 44.608 230.462 43.952C230.094 43.28 229.606 42.776 228.998 42.44C228.39 42.104 227.734 41.936 227.03 41.936C226.326 41.936 225.67 42.104 225.062 42.44C224.47 42.776 223.998 43.28 223.646 43.952C223.294 44.608 223.118 45.416 223.118 46.376C223.118 47.8 223.478 48.904 224.198 49.688C224.934 50.456 225.854 50.84 226.958 50.84ZM241.759 46.4L247.855 53H244.159L239.263 47.312V53H236.527V35.24H239.263V45.56L244.063 39.776H247.855L241.759 46.4ZM251.208 38.024C250.712 38.024 250.296 37.856 249.96 37.52C249.624 37.184 249.456 36.768 249.456 36.272C249.456 35.776 249.624 35.36 249.96 35.024C250.296 34.688 250.712 34.52 251.208 34.52C251.688 34.52 252.096 34.688 252.432 35.024C252.768 35.36 252.936 35.776 252.936 36.272C252.936 36.768 252.768 37.184 252.432 37.52C252.096 37.856 251.688 38.024 251.208 38.024ZM252.552 39.776V53H249.816V39.776H252.552ZM262.816 39.56C263.856 39.56 264.784 39.776 265.6 40.208C266.432 40.64 267.08 41.28 267.544 42.128C268.008 42.976 268.24 44 268.24 45.2V53H265.528V45.608C265.528 44.424 265.232 43.52 264.64 42.896C264.048 42.256 263.24 41.936 262.216 41.936C261.192 41.936 260.376 42.256 259.768 42.896C259.176 43.52 258.88 44.424 258.88 45.608V53H256.144V39.776H258.88V41.288C259.328 40.744 259.896 40.32 260.584 40.016C261.288 39.712 262.032 39.56 262.816 39.56ZM277.058 39.56C278.082 39.56 278.986 39.768 279.77 40.184C280.57 40.584 281.194 41.088 281.642 41.696V39.776H284.402V53.216C284.402 54.432 284.146 55.512 283.634 56.456C283.122 57.416 282.378 58.168 281.402 58.712C280.442 59.256 279.29 59.528 277.946 59.528C276.154 59.528 274.666 59.104 273.482 58.256C272.298 57.424 271.626 56.288 271.466 54.848H274.178C274.386 55.536 274.826 56.088 275.498 56.504C276.186 56.936 277.002 57.152 277.946 57.152C279.05 57.152 279.938 56.816 280.61 56.144C281.298 55.472 281.642 54.496 281.642 53.216V51.008C281.178 51.632 280.546 52.16 279.746 52.592C278.962 53.008 278.066 53.216 277.058 53.216C275.906 53.216 274.85 52.928 273.89 52.352C272.946 51.76 272.194 50.944 271.634 49.904C271.09 48.848 270.818 47.656 270.818 46.328C270.818 45 271.09 43.824 271.634 42.8C272.194 41.776 272.946 40.984 273.89 40.424C274.85 39.848 275.906 39.56 277.058 39.56ZM281.642 46.376C281.642 45.464 281.45 44.672 281.066 44C280.698 43.328 280.21 42.816 279.602 42.464C278.994 42.112 278.338 41.936 277.634 41.936C276.93 41.936 276.274 42.112 275.666 42.464C275.058 42.8 274.562 43.304 274.178 43.976C273.81 44.632 273.626 45.416 273.626 46.328C273.626 47.24 273.81 48.04 274.178 48.728C274.562 49.416 275.058 49.944 275.666 50.312C276.29 50.664 276.946 50.84 277.634 50.84C278.338 50.84 278.994 50.664 279.602 50.312C280.21 49.96 280.698 49.448 281.066 48.776C281.45 48.088 281.642 47.288 281.642 46.376Z" fill="#2E266F"/>
<rect x="298" y="43" width="84" height="3" fill="#FE043C"/>
<path d="M0.292892 43.2929C-0.0976258 43.6834 -0.0976257 44.3166 0.292893 44.7071L6.65686 51.0711C7.04738 51.4616 7.68054 51.4616 8.07108 51.0711C8.46159 50.6806 8.46159 50.0474 8.07108 49.6569L2.41422 44L8.07107 38.3432C8.46159 37.9526 8.46159 37.3195 8.07107 36.9289C7.68054 36.5384 7.04738 36.5384 6.65686 36.9289L0.292892 43.2929ZM183 43L1 43L1 45L183 45L183 43Z" fill="#FE043C"/>
</svg>
