<svg width="514" height="58" viewBox="0 0 514 58" fill="none" xmlns="http://www.w3.org/2000/svg">
<path d="M11.866 4.32V6.552H4.786V11.472H10.306V13.704H4.786V21H2.05V4.32H11.866ZM20.1376 21.216C18.8896 21.216 17.7616 20.936 16.7536 20.376C15.7456 19.8 14.9536 19 14.3776 17.976C13.8016 16.936 13.5136 15.736 13.5136 14.376C13.5136 13.032 13.8096 11.84 14.4016 10.8C14.9936 9.76 15.8016 8.96 16.8256 8.4C17.8496 7.84 18.9936 7.56 20.2576 7.56C21.5216 7.56 22.6656 7.84 23.6896 8.4C24.7136 8.96 25.5216 9.76 26.1136 10.8C26.7056 11.84 27.0016 13.032 27.0016 14.376C27.0016 15.72 26.6976 16.912 26.0896 17.952C25.4816 18.992 24.6496 19.8 23.5936 20.376C22.5536 20.936 21.4016 21.216 20.1376 21.216ZM20.1376 18.84C20.8416 18.84 21.4976 18.672 22.1056 18.336C22.7296 18 23.2336 17.496 23.6176 16.824C24.0016 16.152 24.1936 15.336 24.1936 14.376C24.1936 13.416 24.0096 12.608 23.6416 11.952C23.2736 11.28 22.7856 10.776 22.1776 10.44C21.5696 10.104 20.9136 9.936 20.2096 9.936C19.5056 9.936 18.8496 10.104 18.2416 10.44C17.6496 10.776 17.1776 11.28 16.8256 11.952C16.4736 12.608 16.2976 13.416 16.2976 14.376C16.2976 15.8 16.6576 16.904 17.3776 17.688C18.1136 18.456 19.0336 18.84 20.1376 18.84ZM35.4423 21.216C34.1943 21.216 33.0663 20.936 32.0583 20.376C31.0503 19.8 30.2583 19 29.6823 17.976C29.1063 16.936 28.8183 15.736 28.8183 14.376C28.8183 13.032 29.1143 11.84 29.7063 10.8C30.2983 9.76 31.1063 8.96 32.1303 8.4C33.1543 7.84 34.2983 7.56 35.5623 7.56C36.8263 7.56 37.9703 7.84 38.9943 8.4C40.0183 8.96 40.8263 9.76 41.4183 10.8C42.0103 11.84 42.3063 13.032 42.3063 14.376C42.3063 15.72 42.0023 16.912 41.3943 17.952C40.7863 18.992 39.9543 19.8 38.8983 20.376C37.8583 20.936 36.7063 21.216 35.4423 21.216ZM35.4423 18.84C36.1463 18.84 36.8023 18.672 37.4103 18.336C38.0343 18 38.5383 17.496 38.9223 16.824C39.3063 16.152 39.4983 15.336 39.4983 14.376C39.4983 13.416 39.3143 12.608 38.9463 11.952C38.5783 11.28 38.0903 10.776 37.4823 10.44C36.8743 10.104 36.2183 9.936 35.5143 9.936C34.8103 9.936 34.1543 10.104 33.5463 10.44C32.9543 10.776 32.4823 11.28 32.1303 11.952C31.7783 12.608 31.6023 13.416 31.6023 14.376C31.6023 15.8 31.9623 16.904 32.6823 17.688C33.4183 18.456 34.3383 18.84 35.4423 18.84ZM44.0989 14.328C44.0989 13 44.3709 11.824 44.9149 10.8C45.4749 9.776 46.2269 8.984 47.1709 8.424C48.1309 7.848 49.1949 7.56 50.3629 7.56C51.2269 7.56 52.0749 7.752 52.9069 8.136C53.7549 8.504 54.4269 9 54.9229 9.624V3.24H57.6829V21H54.9229V19.008C54.4749 19.648 53.8509 20.176 53.0509 20.592C52.2669 21.008 51.3629 21.216 50.3389 21.216C49.1869 21.216 48.1309 20.928 47.1709 20.352C46.2269 19.76 45.4749 18.944 44.9149 17.904C44.3709 16.848 44.0989 15.656 44.0989 14.328ZM54.9229 14.376C54.9229 13.464 54.7309 12.672 54.3469 12C53.9789 11.328 53.4909 10.816 52.8829 10.464C52.2749 10.112 51.6189 9.936 50.9149 9.936C50.2109 9.936 49.5549 10.112 48.9469 10.464C48.3389 10.8 47.8429 11.304 47.4589 11.976C47.0909 12.632 46.9069 13.416 46.9069 14.328C46.9069 15.24 47.0909 16.04 47.4589 16.728C47.8429 17.416 48.3389 17.944 48.9469 18.312C49.5709 18.664 50.2269 18.84 50.9149 18.84C51.6189 18.84 52.2749 18.664 52.8829 18.312C53.4909 17.96 53.9789 17.448 54.3469 16.776C54.7309 16.088 54.9229 15.288 54.9229 14.376ZM77.3269 4.32V6.552H70.2469V11.472H75.7669V13.704H70.2469V21H67.5109V4.32H77.3269ZM85.5985 21.216C84.3505 21.216 83.2225 20.936 82.2145 20.376C81.2065 19.8 80.4145 19 79.8385 17.976C79.2625 16.936 78.9745 15.736 78.9745 14.376C78.9745 13.032 79.2705 11.84 79.8625 10.8C80.4545 9.76 81.2625 8.96 82.2865 8.4C83.3105 7.84 84.4545 7.56 85.7185 7.56C86.9825 7.56 88.1265 7.84 89.1505 8.4C90.1745 8.96 90.9825 9.76 91.5745 10.8C92.1665 11.84 92.4625 13.032 92.4625 14.376C92.4625 15.72 92.1585 16.912 91.5505 17.952C90.9425 18.992 90.1105 19.8 89.0545 20.376C88.0145 20.936 86.8625 21.216 85.5985 21.216ZM85.5985 18.84C86.3025 18.84 86.9585 18.672 87.5665 18.336C88.1905 18 88.6945 17.496 89.0785 16.824C89.4625 16.152 89.6545 15.336 89.6545 14.376C89.6545 13.416 89.4705 12.608 89.1025 11.952C88.7345 11.28 88.2465 10.776 87.6385 10.44C87.0305 10.104 86.3745 9.936 85.6705 9.936C84.9665 9.936 84.3105 10.104 83.7025 10.44C83.1105 10.776 82.6385 11.28 82.2865 11.952C81.9345 12.608 81.7585 13.416 81.7585 14.376C81.7585 15.8 82.1185 16.904 82.8385 17.688C83.5745 18.456 84.4945 18.84 85.5985 18.84ZM97.9032 9.696C98.3032 9.024 98.8312 8.504 99.4872 8.136C100.159 7.752 100.951 7.56 101.863 7.56V10.392H101.167C100.095 10.392 99.2792 10.664 98.7192 11.208C98.1752 11.752 97.9032 12.696 97.9032 14.04V21H95.1672V7.776H97.9032V9.696ZM120.429 4.32V6.552H113.349V11.472H118.869V13.704H113.349V21H110.613V4.32H120.429ZM125.7 9.696C126.1 9.024 126.628 8.504 127.284 8.136C127.956 7.752 128.748 7.56 129.66 7.56V10.392H128.964C127.892 10.392 127.076 10.664 126.516 11.208C125.972 11.752 125.7 12.696 125.7 14.04V21H122.964V7.776H125.7V9.696ZM144.295 14.064C144.295 14.56 144.263 15.008 144.199 15.408H134.095C134.175 16.464 134.567 17.312 135.271 17.952C135.975 18.592 136.839 18.912 137.863 18.912C139.335 18.912 140.375 18.296 140.983 17.064H143.935C143.535 18.28 142.807 19.28 141.751 20.064C140.711 20.832 139.415 21.216 137.863 21.216C136.599 21.216 135.463 20.936 134.455 20.376C133.463 19.8 132.679 19 132.103 17.976C131.543 16.936 131.263 15.736 131.263 14.376C131.263 13.016 131.535 11.824 132.079 10.8C132.639 9.76 133.415 8.96 134.407 8.4C135.415 7.84 136.567 7.56 137.863 7.56C139.111 7.56 140.223 7.832 141.199 8.376C142.175 8.92 142.935 9.688 143.479 10.68C144.023 11.656 144.295 12.784 144.295 14.064ZM141.439 13.2C141.423 12.192 141.063 11.384 140.359 10.776C139.655 10.168 138.783 9.864 137.743 9.864C136.799 9.864 135.991 10.168 135.319 10.776C134.647 11.368 134.247 12.176 134.119 13.2H141.439ZM159.108 14.064C159.108 14.56 159.076 15.008 159.012 15.408H148.908C148.988 16.464 149.38 17.312 150.084 17.952C150.788 18.592 151.652 18.912 152.676 18.912C154.148 18.912 155.188 18.296 155.796 17.064H158.747C158.348 18.28 157.62 19.28 156.564 20.064C155.524 20.832 154.228 21.216 152.676 21.216C151.412 21.216 150.276 20.936 149.268 20.376C148.276 19.8 147.492 19 146.916 17.976C146.356 16.936 146.076 15.736 146.076 14.376C146.076 13.016 146.348 11.824 146.892 10.8C147.452 9.76 148.228 8.96 149.22 8.4C150.228 7.84 151.38 7.56 152.676 7.56C153.924 7.56 155.036 7.832 156.012 8.376C156.988 8.92 157.748 9.688 158.292 10.68C158.836 11.656 159.108 12.784 159.108 14.064ZM156.252 13.2C156.236 12.192 155.876 11.384 155.172 10.776C154.468 10.168 153.596 9.864 152.556 9.864C151.612 9.864 150.804 10.168 150.132 10.776C149.46 11.368 149.06 12.176 148.932 13.2H156.252ZM107.804 49.28C109.34 47.952 110.548 46.864 111.428 46.016C112.324 45.152 113.068 44.256 113.66 43.328C114.252 42.4 114.548 41.472 114.548 40.544C114.548 39.584 114.316 38.832 113.852 38.288C113.404 37.744 112.692 37.472 111.716 37.472C110.772 37.472 110.036 37.776 109.508 38.384C108.996 38.976 108.724 39.776 108.692 40.784H106.052C106.1 38.96 106.644 37.568 107.684 36.608C108.74 35.632 110.076 35.144 111.692 35.144C113.436 35.144 114.796 35.624 115.772 36.584C116.764 37.544 117.26 38.824 117.26 40.424C117.26 41.576 116.964 42.688 116.372 43.76C115.796 44.816 115.1 45.768 114.284 46.616C113.484 47.448 112.46 48.416 111.212 49.52L110.132 50.48H117.74V52.76H106.076V50.768L107.804 49.28ZM119.807 49.352V47.288L127.871 35.72H131.183V46.976H133.415V49.352H131.183V53H128.495V49.352H119.807ZM128.615 38.504L122.951 46.976H128.615V38.504ZM144.922 30.344L138.394 57.2H135.706L142.21 30.344H144.922ZM159.098 37.616L152.426 53H149.666L156.41 37.904H147.53V35.576H159.098V37.616Z" fill="#2E266F"/>
<rect y="45" width="84" height="3" fill="#FE043C"/>
<path d="M513.707 47.7071C514.098 47.3166 514.098 46.6834 513.707 46.2929L507.343 39.9289C506.953 39.5384 506.319 39.5384 505.929 39.9289C505.538 40.3194 505.538 40.9526 505.929 41.3431L511.586 47L505.929 52.6568C505.538 53.0474 505.538 53.6805 505.929 54.071C506.319 54.4616 506.953 54.4616 507.343 54.071L513.707 47.7071ZM246 48L513 48L513 46L246 46L246 48Z" fill="#FE043C"/>
</svg>
