<svg width="670" height="758" viewBox="0 0 670 758" fill="none" xmlns="http://www.w3.org/2000/svg">
<rect width="670" height="758" fill="#FFEDDE"/>
<path d="M224.616 500.32V502.552H217.536V507.472H223.056V509.704H217.536V517H214.8V500.32H224.616ZM229.888 505.696C230.288 505.024 230.816 504.504 231.472 504.136C232.144 503.752 232.936 503.56 233.848 503.56V506.392H233.152C232.08 506.392 231.264 506.664 230.704 507.208C230.16 507.752 229.888 508.696 229.888 510.04V517H227.152V503.776H229.888V505.696ZM248.483 510.064C248.483 510.56 248.451 511.008 248.387 511.408H238.283C238.363 512.464 238.755 513.312 239.459 513.952C240.163 514.592 241.027 514.912 242.051 514.912C243.523 514.912 244.563 514.296 245.171 513.064H248.122C247.723 514.28 246.995 515.28 245.939 516.064C244.899 516.832 243.603 517.216 242.051 517.216C240.787 517.216 239.651 516.936 238.643 516.376C237.651 515.8 236.867 515 236.291 513.976C235.731 512.936 235.451 511.736 235.451 510.376C235.451 509.016 235.723 507.824 236.267 506.8C236.827 505.76 237.603 504.96 238.595 504.4C239.603 503.84 240.755 503.56 242.051 503.56C243.299 503.56 244.411 503.832 245.387 504.376C246.363 504.92 247.123 505.688 247.667 506.68C248.211 507.656 248.483 508.784 248.483 510.064ZM245.627 509.2C245.611 508.192 245.251 507.384 244.547 506.776C243.843 506.168 242.971 505.864 241.931 505.864C240.987 505.864 240.179 506.168 239.507 506.776C238.835 507.368 238.435 508.176 238.307 509.2H245.627ZM263.295 510.064C263.295 510.56 263.263 511.008 263.199 511.408H253.095C253.175 512.464 253.567 513.312 254.271 513.952C254.975 514.592 255.839 514.912 256.863 514.912C258.335 514.912 259.375 514.296 259.983 513.064H262.935C262.535 514.28 261.807 515.28 260.751 516.064C259.711 516.832 258.415 517.216 256.863 517.216C255.599 517.216 254.463 516.936 253.455 516.376C252.463 515.8 251.679 515 251.103 513.976C250.543 512.936 250.263 511.736 250.263 510.376C250.263 509.016 250.535 507.824 251.079 506.8C251.639 505.76 252.415 504.96 253.407 504.4C254.415 503.84 255.567 503.56 256.863 503.56C258.111 503.56 259.223 503.832 260.199 504.376C261.175 504.92 261.935 505.688 262.479 506.68C263.023 507.656 263.295 508.784 263.295 510.064ZM260.439 509.2C260.423 508.192 260.063 507.384 259.359 506.776C258.655 506.168 257.783 505.864 256.743 505.864C255.799 505.864 254.991 506.168 254.319 506.776C253.647 507.368 253.247 508.176 253.119 509.2H260.439ZM285.542 500.32V517H282.806V509.704H274.958V517H272.222V500.32H274.958V507.472H282.806V500.32H285.542ZM294.88 517.216C293.632 517.216 292.504 516.936 291.496 516.376C290.488 515.8 289.696 515 289.12 513.976C288.544 512.936 288.256 511.736 288.256 510.376C288.256 509.032 288.552 507.84 289.144 506.8C289.736 505.76 290.544 504.96 291.568 504.4C292.592 503.84 293.736 503.56 295 503.56C296.264 503.56 297.408 503.84 298.432 504.4C299.456 504.96 300.264 505.76 300.856 506.8C301.448 507.84 301.744 509.032 301.744 510.376C301.744 511.72 301.44 512.912 300.832 513.952C300.224 514.992 299.392 515.8 298.336 516.376C297.296 516.936 296.144 517.216 294.88 517.216ZM294.88 514.84C295.584 514.84 296.24 514.672 296.848 514.336C297.472 514 297.976 513.496 298.36 512.824C298.744 512.152 298.936 511.336 298.936 510.376C298.936 509.416 298.752 508.608 298.384 507.952C298.016 507.28 297.528 506.776 296.92 506.44C296.312 506.104 295.656 505.936 294.952 505.936C294.248 505.936 293.592 506.104 292.984 506.44C292.392 506.776 291.92 507.28 291.568 507.952C291.216 508.608 291.04 509.416 291.04 510.376C291.04 511.8 291.4 512.904 292.12 513.688C292.856 514.456 293.776 514.84 294.88 514.84ZM320.456 503.56C321.496 503.56 322.424 503.776 323.24 504.208C324.072 504.64 324.72 505.28 325.184 506.128C325.664 506.976 325.904 508 325.904 509.2V517H323.192V509.608C323.192 508.424 322.896 507.52 322.304 506.896C321.712 506.256 320.904 505.936 319.88 505.936C318.856 505.936 318.04 506.256 317.432 506.896C316.84 507.52 316.544 508.424 316.544 509.608V517H313.832V509.608C313.832 508.424 313.536 507.52 312.944 506.896C312.352 506.256 311.544 505.936 310.52 505.936C309.496 505.936 308.68 506.256 308.072 506.896C307.48 507.52 307.184 508.424 307.184 509.608V517H304.448V503.776H307.184V505.288C307.632 504.744 308.2 504.32 308.888 504.016C309.576 503.712 310.312 503.56 311.096 503.56C312.152 503.56 313.096 503.784 313.928 504.232C314.76 504.68 315.4 505.328 315.848 506.176C316.248 505.376 316.872 504.744 317.72 504.28C318.568 503.8 319.48 503.56 320.456 503.56ZM341.506 510.064C341.506 510.56 341.474 511.008 341.41 511.408H331.306C331.386 512.464 331.778 513.312 332.482 513.952C333.186 514.592 334.05 514.912 335.074 514.912C336.546 514.912 337.586 514.296 338.194 513.064H341.146C340.746 514.28 340.018 515.28 338.962 516.064C337.922 516.832 336.626 517.216 335.074 517.216C333.81 517.216 332.674 516.936 331.666 516.376C330.674 515.8 329.89 515 329.314 513.976C328.754 512.936 328.474 511.736 328.474 510.376C328.474 509.016 328.746 507.824 329.29 506.8C329.85 505.76 330.626 504.96 331.618 504.4C332.626 503.84 333.778 503.56 335.074 503.56C336.322 503.56 337.434 503.832 338.41 504.376C339.386 504.92 340.146 505.688 340.69 506.68C341.234 507.656 341.506 508.784 341.506 510.064ZM338.65 509.2C338.634 508.192 338.274 507.384 337.57 506.776C336.866 506.168 335.994 505.864 334.954 505.864C334.01 505.864 333.202 506.168 332.53 506.776C331.858 507.368 331.458 508.176 331.33 509.2H338.65ZM355.881 500.32C357.657 500.32 359.209 500.664 360.537 501.352C361.881 502.024 362.913 503 363.633 504.28C364.369 505.544 364.737 507.024 364.737 508.72C364.737 510.416 364.369 511.888 363.633 513.136C362.913 514.384 361.881 515.344 360.537 516.016C359.209 516.672 357.657 517 355.881 517H350.433V500.32H355.881ZM355.881 514.768C357.833 514.768 359.329 514.24 360.369 513.184C361.409 512.128 361.929 510.64 361.929 508.72C361.929 506.784 361.409 505.272 360.369 504.184C359.329 503.096 357.833 502.552 355.881 502.552H353.169V514.768H355.881ZM379.568 510.064C379.568 510.56 379.536 511.008 379.472 511.408H369.368C369.448 512.464 369.84 513.312 370.544 513.952C371.248 514.592 372.112 514.912 373.136 514.912C374.608 514.912 375.648 514.296 376.256 513.064H379.208C378.808 514.28 378.08 515.28 377.024 516.064C375.984 516.832 374.688 517.216 373.136 517.216C371.872 517.216 370.736 516.936 369.728 516.376C368.736 515.8 367.952 515 367.376 513.976C366.816 512.936 366.536 511.736 366.536 510.376C366.536 509.016 366.808 507.824 367.352 506.8C367.912 505.76 368.688 504.96 369.68 504.4C370.688 503.84 371.84 503.56 373.136 503.56C374.384 503.56 375.496 503.832 376.472 504.376C377.448 504.92 378.208 505.688 378.752 506.68C379.296 507.656 379.568 508.784 379.568 510.064ZM376.712 509.2C376.696 508.192 376.336 507.384 375.632 506.776C374.928 506.168 374.056 505.864 373.016 505.864C372.072 505.864 371.264 506.168 370.592 506.776C369.92 507.368 369.52 508.176 369.392 509.2H376.712ZM384.997 499.24V517H382.261V499.24H384.997ZM389.981 502.024C389.485 502.024 389.069 501.856 388.733 501.52C388.397 501.184 388.229 500.768 388.229 500.272C388.229 499.776 388.397 499.36 388.733 499.024C389.069 498.688 389.485 498.52 389.981 498.52C390.461 498.52 390.869 498.688 391.205 499.024C391.541 499.36 391.709 499.776 391.709 500.272C391.709 500.768 391.541 501.184 391.205 501.52C390.869 501.856 390.461 502.024 389.981 502.024ZM391.325 503.776V517H388.589V503.776H391.325ZM400.029 514.552L403.773 503.776H406.677L401.637 517H398.373L393.357 503.776H396.285L400.029 514.552ZM420.865 510.064C420.865 510.56 420.833 511.008 420.769 511.408H410.665C410.745 512.464 411.137 513.312 411.841 513.952C412.545 514.592 413.409 514.912 414.433 514.912C415.905 514.912 416.945 514.296 417.553 513.064H420.505C420.105 514.28 419.377 515.28 418.321 516.064C417.281 516.832 415.985 517.216 414.433 517.216C413.169 517.216 412.033 516.936 411.025 516.376C410.033 515.8 409.249 515 408.673 513.976C408.113 512.936 407.833 511.736 407.833 510.376C407.833 509.016 408.105 507.824 408.649 506.8C409.209 505.76 409.985 504.96 410.977 504.4C411.985 503.84 413.137 503.56 414.433 503.56C415.681 503.56 416.793 503.832 417.769 504.376C418.745 504.92 419.505 505.688 420.049 506.68C420.593 507.656 420.865 508.784 420.865 510.064ZM418.009 509.2C417.993 508.192 417.633 507.384 416.929 506.776C416.225 506.168 415.353 505.864 414.313 505.864C413.369 505.864 412.561 506.168 411.889 506.776C411.217 507.368 410.817 508.176 410.689 509.2H418.009ZM426.294 505.696C426.694 505.024 427.222 504.504 427.878 504.136C428.55 503.752 429.342 503.56 430.254 503.56V506.392H429.558C428.486 506.392 427.67 506.664 427.11 507.208C426.566 507.752 426.294 508.696 426.294 510.04V517H423.558V503.776H426.294V505.696ZM444.673 503.776L436.561 523.216H433.729L436.417 516.784L431.209 503.776H434.257L437.977 513.856L441.841 503.776H444.673ZM224.856 545.592H217.872L216.672 549H213.816L219.792 532.296H222.96L228.936 549H226.056L224.856 545.592ZM224.088 543.36L221.376 535.608L218.64 543.36H224.088ZM234.726 538.008V545.328C234.726 545.824 234.838 546.184 235.062 546.408C235.302 546.616 235.702 546.72 236.262 546.72H237.942V549H235.782C234.55 549 233.606 548.712 232.95 548.136C232.294 547.56 231.966 546.624 231.966 545.328V538.008H230.406V535.776H231.966V532.488H234.726V535.776H237.942V538.008H234.726ZM259.058 532.32L253.538 542.952V549H250.802V542.952L245.258 532.32H248.306L252.17 540.504L256.034 532.32H259.058ZM266.966 549.216C265.718 549.216 264.59 548.936 263.582 548.376C262.574 547.8 261.782 547 261.206 545.976C260.63 544.936 260.342 543.736 260.342 542.376C260.342 541.032 260.638 539.84 261.23 538.8C261.822 537.76 262.63 536.96 263.654 536.4C264.678 535.84 265.822 535.56 267.086 535.56C268.35 535.56 269.494 535.84 270.518 536.4C271.542 536.96 272.35 537.76 272.942 538.8C273.534 539.84 273.83 541.032 273.83 542.376C273.83 543.72 273.526 544.912 272.918 545.952C272.31 546.992 271.478 547.8 270.422 548.376C269.382 548.936 268.23 549.216 266.966 549.216ZM266.966 546.84C267.67 546.84 268.326 546.672 268.934 546.336C269.558 546 270.062 545.496 270.446 544.824C270.83 544.152 271.022 543.336 271.022 542.376C271.022 541.416 270.838 540.608 270.47 539.952C270.102 539.28 269.614 538.776 269.006 538.44C268.398 538.104 267.742 537.936 267.038 537.936C266.334 537.936 265.678 538.104 265.07 538.44C264.478 538.776 264.006 539.28 263.654 539.952C263.302 540.608 263.126 541.416 263.126 542.376C263.126 543.8 263.486 544.904 264.206 545.688C264.942 546.456 265.862 546.84 266.966 546.84ZM288.51 535.776V549H285.774V547.44C285.342 547.984 284.774 548.416 284.07 548.736C283.382 549.04 282.646 549.192 281.862 549.192C280.822 549.192 279.886 548.976 279.054 548.544C278.238 548.112 277.59 547.472 277.11 546.624C276.646 545.776 276.414 544.752 276.414 543.552V535.776H279.126V543.144C279.126 544.328 279.422 545.24 280.014 545.88C280.606 546.504 281.414 546.816 282.438 546.816C283.462 546.816 284.27 546.504 284.862 545.88C285.47 545.24 285.774 544.328 285.774 543.144V535.776H288.51ZM294.856 537.696C295.256 537.024 295.784 536.504 296.44 536.136C297.112 535.752 297.904 535.56 298.816 535.56V538.392H298.12C297.048 538.392 296.232 538.664 295.672 539.208C295.128 539.752 294.856 540.696 294.856 542.04V549H292.12V535.776H294.856V537.696ZM313.014 532.32C314.79 532.32 316.342 532.664 317.67 533.352C319.014 534.024 320.046 535 320.766 536.28C321.502 537.544 321.87 539.024 321.87 540.72C321.87 542.416 321.502 543.888 320.766 545.136C320.046 546.384 319.014 547.344 317.67 548.016C316.342 548.672 314.79 549 313.014 549H307.566V532.32H313.014ZM313.014 546.768C314.966 546.768 316.462 546.24 317.502 545.184C318.542 544.128 319.062 542.64 319.062 540.72C319.062 538.784 318.542 537.272 317.502 536.184C316.462 535.096 314.966 534.552 313.014 534.552H310.302V546.768H313.014ZM330.317 549.216C329.069 549.216 327.941 548.936 326.933 548.376C325.925 547.8 325.133 547 324.557 545.976C323.981 544.936 323.693 543.736 323.693 542.376C323.693 541.032 323.989 539.84 324.581 538.8C325.173 537.76 325.981 536.96 327.005 536.4C328.029 535.84 329.173 535.56 330.437 535.56C331.701 535.56 332.845 535.84 333.869 536.4C334.893 536.96 335.701 537.76 336.293 538.8C336.885 539.84 337.181 541.032 337.181 542.376C337.181 543.72 336.877 544.912 336.269 545.952C335.661 546.992 334.829 547.8 333.773 548.376C332.733 548.936 331.581 549.216 330.317 549.216ZM330.317 546.84C331.021 546.84 331.677 546.672 332.285 546.336C332.909 546 333.413 545.496 333.797 544.824C334.181 544.152 334.373 543.336 334.373 542.376C334.373 541.416 334.189 540.608 333.821 539.952C333.453 539.28 332.965 538.776 332.357 538.44C331.749 538.104 331.093 537.936 330.389 537.936C329.685 537.936 329.029 538.104 328.421 538.44C327.829 538.776 327.357 539.28 327.005 539.952C326.653 540.608 326.477 541.416 326.477 542.376C326.477 543.8 326.837 544.904 327.557 545.688C328.293 546.456 329.213 546.84 330.317 546.84ZM345.622 549.216C344.374 549.216 343.246 548.936 342.238 548.376C341.23 547.8 340.438 547 339.862 545.976C339.286 544.936 338.998 543.736 338.998 542.376C338.998 541.032 339.294 539.84 339.886 538.8C340.478 537.76 341.286 536.96 342.31 536.4C343.334 535.84 344.478 535.56 345.742 535.56C347.006 535.56 348.15 535.84 349.174 536.4C350.198 536.96 351.006 537.76 351.598 538.8C352.19 539.84 352.486 541.032 352.486 542.376C352.486 543.72 352.182 544.912 351.574 545.952C350.966 546.992 350.134 547.8 349.078 548.376C348.038 548.936 346.886 549.216 345.622 549.216ZM345.622 546.84C346.326 546.84 346.982 546.672 347.59 546.336C348.214 546 348.718 545.496 349.102 544.824C349.486 544.152 349.678 543.336 349.678 542.376C349.678 541.416 349.494 540.608 349.126 539.952C348.758 539.28 348.27 538.776 347.662 538.44C347.054 538.104 346.398 537.936 345.694 537.936C344.99 537.936 344.334 538.104 343.726 538.44C343.134 538.776 342.662 539.28 342.31 539.952C341.958 540.608 341.782 541.416 341.782 542.376C341.782 543.8 342.142 544.904 342.862 545.688C343.598 546.456 344.518 546.84 345.622 546.84ZM357.927 537.696C358.327 537.024 358.855 536.504 359.511 536.136C360.183 535.752 360.975 535.56 361.887 535.56V538.392H361.191C360.119 538.392 359.303 538.664 358.743 539.208C358.199 539.752 357.927 540.696 357.927 542.04V549H355.191V535.776H357.927V537.696ZM376.132 549.168C375.012 549.168 374.004 548.976 373.108 548.592C372.212 548.192 371.508 547.632 370.996 546.912C370.484 546.192 370.228 545.352 370.228 544.392H373.156C373.22 545.112 373.5 545.704 373.996 546.168C374.508 546.632 375.22 546.864 376.132 546.864C377.076 546.864 377.812 546.64 378.34 546.192C378.868 545.728 379.132 545.136 379.132 544.416C379.132 543.856 378.964 543.4 378.628 543.048C378.308 542.696 377.9 542.424 377.404 542.232C376.924 542.04 376.252 541.832 375.388 541.608C374.3 541.32 373.412 541.032 372.724 540.744C372.052 540.44 371.476 539.976 370.996 539.352C370.516 538.728 370.276 537.896 370.276 536.856C370.276 535.896 370.516 535.056 370.996 534.336C371.476 533.616 372.148 533.064 373.012 532.68C373.876 532.296 374.876 532.104 376.012 532.104C377.628 532.104 378.948 532.512 379.972 533.328C381.012 534.128 381.588 535.232 381.7 536.64H378.676C378.628 536.032 378.34 535.512 377.812 535.08C377.284 534.648 376.588 534.432 375.724 534.432C374.94 534.432 374.3 534.632 373.804 535.032C373.308 535.432 373.06 536.008 373.06 536.76C373.06 537.272 373.212 537.696 373.516 538.032C373.836 538.352 374.236 538.608 374.716 538.8C375.196 538.992 375.852 539.2 376.684 539.424C377.788 539.728 378.684 540.032 379.372 540.336C380.076 540.64 380.668 541.112 381.148 541.752C381.644 542.376 381.892 543.216 381.892 544.272C381.892 545.12 381.66 545.92 381.196 546.672C380.748 547.424 380.084 548.032 379.204 548.496C378.34 548.944 377.316 549.168 376.132 549.168ZM388.312 538.008V545.328C388.312 545.824 388.424 546.184 388.648 546.408C388.888 546.616 389.288 546.72 389.848 546.72H391.528V549H389.368C388.136 549 387.192 548.712 386.536 548.136C385.88 547.56 385.552 546.624 385.552 545.328V538.008H383.992V535.776H385.552V532.488H388.312V535.776H391.528V538.008H388.312ZM406.17 542.064C406.17 542.56 406.138 543.008 406.074 543.408H395.97C396.05 544.464 396.442 545.312 397.146 545.952C397.85 546.592 398.714 546.912 399.738 546.912C401.21 546.912 402.25 546.296 402.858 545.064H405.81C405.41 546.28 404.682 547.28 403.626 548.064C402.586 548.832 401.29 549.216 399.738 549.216C398.474 549.216 397.338 548.936 396.33 548.376C395.338 547.8 394.554 547 393.978 545.976C393.418 544.936 393.138 543.736 393.138 542.376C393.138 541.016 393.41 539.824 393.954 538.8C394.514 537.76 395.29 536.96 396.282 536.4C397.29 535.84 398.442 535.56 399.738 535.56C400.986 535.56 402.098 535.832 403.074 536.376C404.05 536.92 404.81 537.688 405.354 538.68C405.898 539.656 406.17 540.784 406.17 542.064ZM403.314 541.2C403.298 540.192 402.938 539.384 402.234 538.776C401.53 538.168 400.658 537.864 399.618 537.864C398.674 537.864 397.866 538.168 397.194 538.776C396.522 539.368 396.122 540.176 395.994 541.2H403.314ZM411.599 537.72C412.063 537.112 412.695 536.6 413.495 536.184C414.295 535.768 415.199 535.56 416.207 535.56C417.359 535.56 418.407 535.848 419.351 536.424C420.311 536.984 421.063 537.776 421.607 538.8C422.151 539.824 422.423 541 422.423 542.328C422.423 543.656 422.151 544.848 421.607 545.904C421.063 546.944 420.311 547.76 419.351 548.352C418.407 548.928 417.359 549.216 416.207 549.216C415.199 549.216 414.303 549.016 413.519 548.616C412.735 548.2 412.095 547.688 411.599 547.08V555.288H408.863V535.776H411.599V537.72ZM419.639 542.328C419.639 541.416 419.447 540.632 419.062 539.976C418.695 539.304 418.199 538.8 417.575 538.464C416.967 538.112 416.311 537.936 415.607 537.936C414.919 537.936 414.263 538.112 413.639 538.464C413.031 538.816 412.535 539.328 412.151 540C411.783 540.672 411.599 541.464 411.599 542.376C411.599 543.288 411.783 544.088 412.151 544.776C412.535 545.448 413.031 545.96 413.639 546.312C414.263 546.664 414.919 546.84 415.607 546.84C416.311 546.84 416.967 546.664 417.575 546.312C418.199 545.944 418.695 545.416 419.062 544.728C419.447 544.04 419.639 543.24 419.639 542.328ZM429.928 549.216C428.888 549.216 427.952 549.032 427.12 548.664C426.304 548.28 425.656 547.768 425.176 547.128C424.696 546.472 424.44 545.744 424.408 544.944H427.24C427.288 545.504 427.552 545.976 428.032 546.36C428.528 546.728 429.144 546.912 429.88 546.912C430.648 546.912 431.24 546.768 431.656 546.48C432.088 546.176 432.304 545.792 432.304 545.328C432.304 544.832 432.064 544.464 431.584 544.224C431.12 543.984 430.376 543.72 429.352 543.432C428.36 543.16 427.552 542.896 426.928 542.64C426.304 542.384 425.76 541.992 425.296 541.464C424.848 540.936 424.624 540.24 424.624 539.376C424.624 538.672 424.832 538.032 425.248 537.456C425.664 536.864 426.256 536.4 427.024 536.064C427.808 535.728 428.704 535.56 429.712 535.56C431.216 535.56 432.424 535.944 433.336 536.712C434.264 537.464 434.76 538.496 434.824 539.808H432.088C432.04 539.216 431.8 538.744 431.368 538.392C430.936 538.04 430.352 537.864 429.616 537.864C428.896 537.864 428.344 538 427.96 538.272C427.576 538.544 427.384 538.904 427.384 539.352C427.384 539.704 427.512 540 427.768 540.24C428.024 540.48 428.336 540.672 428.704 540.816C429.072 540.944 429.616 541.112 430.336 541.32C431.296 541.576 432.08 541.84 432.688 542.112C433.312 542.368 433.848 542.752 434.296 543.264C434.744 543.776 434.976 544.456 434.992 545.304C434.992 546.056 434.784 546.728 434.368 547.32C433.952 547.912 433.36 548.376 432.592 548.712C431.84 549.048 430.952 549.216 429.928 549.216Z" fill="#2E266F"/>
<rect x="240" y="633" width="192" height="3" fill="#FE043C"/>
<path d="M311.436 393.4C309.78 393.4 308.158 394.074 306.989 395.243C305.82 396.412 305.147 398.036 305.147 399.689C305.147 401.343 305.82 402.967 306.989 404.136C308.158 405.305 309.78 405.979 311.436 405.979C313.089 405.979 314.71 405.305 315.882 404.136C317.052 402.967 317.725 401.35 317.725 399.689C317.725 398.036 317.052 396.412 315.882 395.243C314.71 394.074 313.089 393.4 311.436 393.4Z" fill="#FE043C"/>
<path d="M436.699 287.815L422.042 221.601C425.997 221.065 429.486 219.053 431.94 216.14C434.836 217.95 438.254 219.002 441.914 219.002H454.492C457.966 219.002 460.781 216.186 460.781 212.712V187.556C460.781 184.083 457.966 181.267 454.492 181.267H441.914C438.146 181.267 434.633 182.383 431.682 184.296C428.803 181.041 424.599 178.982 419.922 178.982H382.797C376.127 178.982 370.418 183.166 368.145 189.045H353.238C344.222 189.045 336.887 196.381 336.887 205.397C336.887 214.413 344.222 221.748 353.238 221.748H385.61V234.422C385.61 237.896 388.425 240.711 391.899 240.711C395.373 240.711 398.188 237.896 398.188 234.422V221.748H409.194L424.98 293.077L395.102 346.294C391.837 352.086 385.681 355.685 379.031 355.685H304.444C301.322 329.5 278.995 309.127 251.984 309.127C240.033 309.127 228.757 313.021 219.375 320.386C219.362 320.395 219.35 320.405 219.338 320.415C208.167 329.2 201.146 341.808 199.51 355.685H186.593C187.413 310.473 224.448 273.947 269.849 273.947H314.462C317.983 273.947 320.85 276.814 320.85 280.337V336.818C320.85 340.292 323.665 343.107 327.139 343.107H360.603C374.255 343.107 386.836 335.683 393.434 323.737C396.488 318.209 398.107 311.949 398.112 305.638L398.144 284.744C398.149 281.271 395.336 278.45 391.862 278.445C391.86 278.445 391.857 278.445 391.855 278.445C388.386 278.445 385.57 281.256 385.566 284.725L385.534 305.624C385.531 309.82 384.455 313.981 382.426 317.654C378.038 325.594 369.676 330.527 360.603 330.527H333.428V280.335C333.428 277.114 332.617 274.078 331.195 271.417C336.845 268.152 340.658 262.05 340.658 255.07C340.658 244.666 332.192 236.203 321.791 236.203H298.835C296.629 236.203 294.514 236.586 292.546 237.284V182.117C292.546 171.713 284.081 163.25 273.679 163.25H233.107C203.696 163.25 179.238 184.844 174.742 213.007C174.553 213.607 174.45 214.243 174.45 214.904C174.45 214.943 174.454 214.98 174.454 215.017C174.155 217.424 174 219.874 174 222.357V255.073C174 264.519 180.979 272.365 190.052 273.729L203.979 287.656C185.527 305.137 174 329.856 174 357.221V361.975C174 365.448 176.815 368.264 180.289 368.264H215.633C215.552 368.669 215.508 369.092 215.508 369.521C215.508 378.648 218.886 386.998 224.448 393.4H180.289C176.815 393.4 174 396.218 174 399.689C174 403.163 176.815 405.978 180.289 405.978H251.257C251.5 405.986 251.741 405.998 251.984 405.998C272.097 405.998 288.461 389.634 288.461 369.521C288.461 369.092 288.417 368.669 288.336 368.264H379.031C388.934 368.264 398.188 363.517 403.988 355.666H411.953C410.162 360.024 409.211 364.721 409.211 369.521C409.211 378.648 412.589 386.998 418.151 393.4H336.592C333.118 393.4 330.303 396.218 330.303 399.689C330.303 403.163 333.118 405.978 336.592 405.978H444.96C445.204 405.986 445.444 405.998 445.688 405.998C465.8 405.998 482.164 389.634 482.164 369.521C482.164 364.721 481.213 360.024 479.422 355.666H489.711C493.185 355.666 496 352.85 496 349.377C496 316.18 469.603 289.031 436.699 287.815ZM298.835 248.784H321.791C325.257 248.784 328.08 251.604 328.08 255.073C328.08 258.539 325.257 261.362 321.791 261.362H298.835C295.367 261.362 292.546 258.539 292.546 255.073C292.546 251.604 295.367 248.784 298.835 248.784ZM186.578 222.357C186.578 221.969 186.598 221.584 186.608 221.195H255.426C258.9 221.195 261.715 218.38 261.715 214.906C261.715 211.433 258.9 208.617 255.426 208.617H188.652C194.528 189.647 212.233 175.831 233.107 175.831H273.677C277.146 175.831 279.966 178.651 279.966 182.12V255.073C279.966 258.539 277.146 261.362 273.677 261.362H192.87C192.87 261.362 192.867 261.362 192.865 261.362C189.398 261.362 186.578 258.539 186.578 255.073V222.357ZM208.052 273.94H222.443C219.421 275.665 216.505 277.554 213.7 279.588L208.052 273.94ZM275.883 369.521C275.883 382.618 265.292 393.282 252.228 393.412C252.147 393.41 252.065 393.4 251.984 393.4H251.26C238.416 393.015 228.086 382.456 228.086 369.521C228.086 369.092 228.042 368.669 227.961 368.264H276.008C275.927 368.669 275.883 369.092 275.883 369.521ZM212.201 355.685C213.759 345.694 219.006 336.668 227.111 330.303C227.13 330.291 227.147 330.274 227.167 330.261C234.306 324.665 242.887 321.705 251.984 321.705C272.05 321.705 288.734 336.457 291.763 355.685H212.201ZM441.914 193.845H448.203V206.423H441.914C438.445 206.423 435.625 203.603 435.625 200.134C435.625 196.668 438.445 193.845 441.914 193.845ZM349.465 205.397C349.465 203.316 351.157 201.623 353.238 201.623H367.094V206.045C367.094 207.116 367.202 208.16 367.406 209.17H353.238C351.157 209.17 349.465 207.477 349.465 205.397ZM391.899 209.17H382.797C381.075 209.17 379.672 207.77 379.672 206.045V194.685C379.672 192.963 381.075 191.561 382.797 191.561H419.922C421.644 191.561 423.047 192.963 423.047 194.685V206.045C423.047 207.77 421.644 209.17 419.922 209.17H391.899ZM469.586 369.521C469.586 382.618 458.995 393.282 445.931 393.412C445.85 393.41 445.769 393.4 445.688 393.4H444.963C432.119 393.015 421.789 382.456 421.789 369.521C421.789 364.525 423.347 359.695 426.216 355.666H465.159C468.028 359.695 469.586 364.525 469.586 369.521ZM411.326 343.088L435.308 300.374C459.799 300.823 479.963 319.31 483.019 343.088H411.326Z" fill="#FE043C"/>
<path d="M391.899 265.867C395.372 265.867 398.188 263.052 398.188 259.578C398.188 256.104 395.372 253.289 391.899 253.289H391.877C388.403 253.289 385.597 256.104 385.597 259.578C385.597 263.052 388.425 265.867 391.899 265.867Z" fill="#FE043C"/>
</svg>
